<?xml version="1.0" encoding="iso-8859-1"?>
<!-- Generator: Adobe Illustrator 22.0.1, SVG Export Plug-In . SVG Version: 6.00 Build 0)  -->
<svg version="1.1" id="Capa_1" xmlns="http://www.w3.org/2000/svg" xmlns:xlink="http://www.w3.org/1999/xlink" x="0px" y="0px"
	 viewBox="2372.387 1317.919 150 150" style="enable-background:new 2372.387 1317.919 150 150;" xml:space="preserve">
<g>
	<path style="fill:#F57B20;" d="M2448.175,1447.208c-1.699,0-3.081-1.382-3.081-3.081v-6.079h-8.124
		c-1.699,0-3.081-1.382-3.081-3.08s1.382-3.08,3.081-3.08h15.515c3.526,0,6.395-2.869,6.395-6.395c0-3.525-2.869-6.393-6.395-6.393
		h-8.655c-6.922,0-12.554-5.632-12.554-12.554c0-6.922,5.633-12.554,12.554-12.554h1.233v-5.952c0-1.699,1.381-3.081,3.078-3.081
		c1.699,0,3.081,1.382,3.081,3.081v5.952h7.842c1.698,0,3.078,1.382,3.078,3.081c0,1.698-1.381,3.08-3.078,3.08h-15.235
		c-3.525,0-6.394,2.869-6.394,6.394c0,3.526,2.869,6.395,6.394,6.395h8.655c6.923,0,12.556,5.631,12.556,12.553
		c0,6.833-5.552,12.466-12.376,12.554h-1.412v6.079C2451.253,1445.826,2449.873,1447.208,2448.175,1447.208z"/>
	<path style="fill:#F57B20;" d="M2411.663,1467.919c-15.773,0-28.606-12.833-28.606-28.607c0-12.064,2.501-23.958,7.434-35.352
		c3.951-9.091,9.423-17.867,16.263-26.08c8.24-9.88,16.417-16.514,20.558-19.59l0.531-0.393l-17.676-26.707
		c-0.792-1.204-0.643-2.823,0.358-3.849c5.76-5.911,11.622-8.665,18.449-8.665c5.468,0,11.164,1.681,18.583,4.395
		c0.622,0.242,1.272,0.357,2.033,0.357c2.238,0,4.875-1.087,7.668-2.236l0.278-0.114c3.345-1.408,7.503-3.158,11.948-3.158
		c4.712,0,8.96,1.911,12.983,5.844c0.983,0.933,1.212,2.428,0.565,3.644l-16.338,30.305l0.489,0.359
		c4.184,3.069,12.455,9.724,20.839,19.807c6.811,8.144,12.282,16.919,16.261,26.083c4.933,11.393,7.434,23.286,7.434,35.351
		c0,15.774-12.833,28.607-28.606,28.607H2411.663z M2432.82,1361.851c-4.389,3.12-13.022,9.887-21.506,20.143
		c-14.663,17.709-22.098,36.993-22.098,57.318c0,12.378,10.069,22.448,22.447,22.448h71.447c6.003,0,11.643-2.347,15.883-6.609
		c4.223-4.245,6.532-9.872,6.501-15.844c0-20.358-7.435-39.643-22.098-57.315c-9.423-11.389-18.847-18.299-21.51-20.147l-0.18-0.124
		h-28.704L2432.82,1361.851z M2428.974,1324.772c-4.378,0-8.013,1.45-11.785,4.701l-0.466,0.401l17.008,25.69h27.103l15.598-28.986
		l-0.504-0.356c-2.795-1.977-5.036-2.206-6.478-2.206c-3.122,0-6.252,1.306-9.564,2.69c-3.155,1.326-6.704,2.818-10.327,2.818
		c-1.443,0-2.834-0.24-4.137-0.713C2438.7,1326.318,2433.603,1324.772,2428.974,1324.772z"/>
</g>
</svg>
