<?xml version="1.0" encoding="iso-8859-1"?>
<!-- Generator: Adobe Illustrator 22.0.1, SVG Export Plug-In . SVG Version: 6.00 Build 0)  -->
<svg version="1.1" id="Capa_1" xmlns="http://www.w3.org/2000/svg" xmlns:xlink="http://www.w3.org/1999/xlink" x="0px" y="0px"
	 viewBox="1783.834 1317.919 243.304 150" style="enable-background:new 1783.834 1317.919 243.304 150;" xml:space="preserve">
<g>
	<path style="fill:#F57B20;" d="M1963.383,1335.422v-7.13h7.899c1.363,0,2.467-1.105,2.467-2.467v-5.439
		c0-1.363-1.104-2.467-2.467-2.467h-22.226c-1.363,0-2.467,1.105-2.467,2.467v5.439c0,1.362,1.105,2.467,2.467,2.467h7.692v7.13
		c-35.33,1.729-63.444,30.918-63.444,66.677c0,36.871,29.89,66.761,66.76,66.761s66.761-29.89,66.761-66.761
		C2026.826,1366.34,1998.712,1337.151,1963.383,1335.422z M1960.065,1462.224c-33.154,0-60.126-26.972-60.126-60.126
		s26.972-60.126,60.126-60.126s60.126,26.972,60.126,60.126S1993.219,1462.224,1960.065,1462.224z"/>
	<path style="fill:#F57B20;" d="M1831.935,1353.583h65.516c1.832,0,3.317-1.485,3.317-3.317c0-1.832-1.485-3.317-3.317-3.317
		h-65.516c-1.832,0-3.317,1.485-3.317,3.317C1828.618,1352.097,1830.103,1353.583,1831.935,1353.583z"/>
	<path style="fill:#F57B20;" d="M1809.543,1380.121h70.493c1.832,0,3.317-1.485,3.317-3.317c0-1.832-1.485-3.317-3.317-3.317
		h-70.493c-1.832,0-3.317,1.485-3.317,3.317C1806.226,1378.636,1807.711,1380.121,1809.543,1380.121z"/>
	<path style="fill:#F57B20;" d="M1878.377,1402.513c0-1.832-1.485-3.317-3.317-3.317h-87.908c-1.832,0-3.317,1.485-3.317,3.317
		c0,1.832,1.485,3.317,3.317,3.317h87.908C1876.892,1405.83,1878.377,1404.345,1878.377,1402.513z"/>
	<path style="fill:#F57B20;" d="M1883.353,1428.222c0-1.832-1.485-3.317-3.317-3.317h-73.81c-1.832,0-3.317,1.485-3.317,3.317
		c0,1.832,1.485,3.317,3.317,3.317h73.81C1881.868,1431.54,1883.353,1430.054,1883.353,1428.222z"/>
	<path style="fill:#F57B20;" d="M1894.964,1450.614h-65.517c-1.832,0-3.317,1.485-3.317,3.317c0,1.832,1.485,3.317,3.317,3.317
		h65.517c1.832,0,3.317-1.485,3.317-3.317C1898.281,1452.099,1896.795,1450.614,1894.964,1450.614z"/>
	<path style="fill:#F57B20;" d="M1985.603,1389.003l-23.169,10.096c-0.633-0.67-1.449-1.161-2.369-1.398v-43.703h-1.659v43.561
		c-2.554,0.211-4.562,2.347-4.562,4.955c0,2.748,2.228,4.976,4.976,4.976c2.57,0,4.684-1.948,4.947-4.449l23.491-10.236
		L1985.603,1389.003z"/>
</g>
</svg>
