<?xml version="1.0" encoding="iso-8859-1"?>
<!-- Generator: Adobe Illustrator 22.0.1, SVG Export Plug-In . SVG Version: 6.00 Build 0)  -->
<svg version="1.1" id="Capa_1" xmlns="http://www.w3.org/2000/svg" xmlns:xlink="http://www.w3.org/1999/xlink" x="0px" y="0px"
	 viewBox="2651.929 1317.919 187.25 150" style="enable-background:new 2651.929 1317.919 187.25 150;" xml:space="preserve">
<g>
	<path style="fill:#F57B20;" d="M2839.323,1407.666c0-13.297-10.817-24.113-24.113-24.113c-13.05,0-23.713,10.42-24.102,23.378
		c-4.492-6.175-11.751-9.925-19.48-9.925c-13.312,0-24.141,10.817-24.141,24.113s10.829,24.113,24.141,24.113
		c2.736,0,5.38-0.447,7.869-1.328c2.413,10.951,12.167,18.815,23.504,18.815c13.297,0,24.113-10.817,24.113-24.113
		c0-3.13-0.594-6.175-1.765-9.062C2833.862,1425.607,2839.323,1417.095,2839.323,1407.666z M2778.919,1439.748
		c-2.299,0.918-4.749,1.382-7.292,1.382c-11.05,0-20.038-8.977-20.038-20.011c0-11.035,8.989-20.011,20.038-20.011
		c9.595,0,17.963,7.022,19.667,16.414c-7.665,4.262-12.406,12.294-12.406,21.084
		C2778.888,1438.985,2778.9,1439.35,2778.919,1439.748z M2782.99,1438.607c0-7.06,3.628-13.466,9.709-17.136
		c0.831-0.508,1.69-0.948,2.555-1.305l0.388-0.182c0.678-0.267,1.41-0.504,2.18-0.708c1.673-0.451,3.415-0.68,5.178-0.68
		c6.951,0,13.298,3.53,16.977,9.441c0.469,0.759,0.892,1.551,1.259,2.36c1.178,2.574,1.776,5.336,1.776,8.21
		c0,11.034-8.977,20.011-20.011,20.011c-9.758,0-18.249-7.265-19.75-16.906c-0.178-1.062-0.261-1.972-0.261-2.861V1438.607z
		 M2823.503,1425.892c-4.379-7.045-12.177-11.398-20.501-11.398c-2.167,0-4.272,0.279-6.268,0.832
		c-1.019-2.416-1.535-4.99-1.535-7.66c0-9.596,6.791-17.628,15.818-19.561c-0.03,0.092-0.077,0.175-0.091,0.275
		c-0.347,2.476-1.163,4.169-2.426,5.03c-0.802,0.547-1.673,0.663-2.262,0.663c-0.435,0-0.73-0.063-0.73-0.063
		c-0.133-0.034-0.271-0.052-0.408-0.052c-0.789,0-1.472,0.532-1.662,1.294c-0.231,0.915,0.324,1.848,1.246,2.082
		c0.158,0.038,0.738,0.163,1.561,0.163c0.48,0,1.075-0.057,1.715-0.2c-0.277,0.167-0.551,0.31-0.831,0.5
		c-0.779,0.531-0.983,1.598-0.451,2.382c0.323,0.467,0.853,0.745,1.417,0.745c0.344,0,0.677-0.102,0.962-0.297
		c1.645-1.118,3.132-1.686,4.419-1.686c0.323,0,0.637,0.037,0.936,0.109c1.628,0.391,2.448,1.809,2.452,1.815
		c0.297,0.556,0.876,0.9,1.508,0.9c0.279,0,0.558-0.069,0.803-0.2c0.405-0.214,0.701-0.573,0.835-1.011
		c0.134-0.437,0.089-0.902-0.125-1.303c-0.059-0.112-1.478-2.743-4.629-3.522c-0.575-0.142-1.171-0.214-1.776-0.214
		c-0.882,0-1.797,0.176-2.733,0.477c1.402-1.074,2.429-2.65,3.053-4.725c0.27,0.986,0.779,2.141,1.791,3.176
		c1.646,1.687,4.076,2.543,7.222,2.543c0.25,0,0.509-0.005,0.768-0.016c0.456-0.018,0.88-0.214,1.189-0.549
		c0.311-0.338,0.471-0.775,0.454-1.234c-0.041-0.919-0.809-1.638-1.781-1.638c0,0-0.398,0.012-0.59,0.012
		c-2.202,0-3.816-0.503-4.797-1.493c-1.177-1.19-1.126-2.829-1.126-2.837c0.039-0.642-0.302-1.208-0.844-1.533
		c10.628,0.462,19.138,9.227,19.138,19.967C2835.221,1415.541,2830.641,1422.63,2823.503,1425.892z M2814.108,1387.835
		c-0.021-0.04-0.034-0.082-0.058-0.121c0.091-0.005,0.181-0.01,0.273-0.014C2814.25,1387.745,2814.172,1387.78,2814.108,1387.835z"
		/>
	<path style="fill:#F57B20;" d="M2801.537,1358.266l0.52-0.359l-0.306-0.553c-2.704-4.88-7.844-7.912-13.414-7.912
		c-3.122,0-6.123,0.932-8.68,2.695l-0.52,0.359l0.306,0.553c2.706,4.88,7.845,7.912,13.414,7.912
		C2795.979,1360.962,2798.981,1360.029,2801.537,1358.266z M2788.337,1353.544c2.788,0,5.478,1.048,7.533,2.908
		c-0.974,0.27-1.983,0.407-3.013,0.407c-2.788,0-5.478-1.048-7.533-2.908C2786.298,1353.681,2787.308,1353.544,2788.337,1353.544z"
		/>
	<path style="fill:#F57B20;" d="M2788.206,1367.015l0.52-0.358l-0.306-0.553c-2.706-4.881-7.846-7.912-13.415-7.912
		c-3.122,0-6.123,0.932-8.68,2.695l-0.52,0.359l0.306,0.553c2.706,4.88,7.846,7.911,13.415,7.911
		C2782.648,1369.71,2785.65,1368.779,2788.206,1367.015z M2775.005,1362.293c2.786,0,5.478,1.049,7.534,2.908
		c-0.975,0.271-1.984,0.409-3.013,0.409c-2.788,0-5.479-1.049-7.534-2.909C2772.966,1362.429,2773.975,1362.293,2775.005,1362.293z"
		/>
	<path style="fill:#F57B20;" d="M2774.874,1375.764l0.52-0.358l-0.306-0.553c-2.706-4.88-7.846-7.911-13.415-7.911
		c-3.124,0-6.125,0.932-8.678,2.695l-0.52,0.358l0.306,0.553c2.705,4.88,7.844,7.911,13.414,7.911
		C2769.318,1378.459,2772.319,1377.528,2774.874,1375.764z M2761.673,1371.042c2.788,0,5.479,1.049,7.534,2.908
		c-0.975,0.271-1.984,0.409-3.013,0.409c-2.789,0-5.479-1.049-7.534-2.909C2759.634,1371.178,2760.643,1371.042,2761.673,1371.042z"
		/>
	<path style="fill:#F57B20;" d="M2748.342,1375.689c-3.122,0-6.123,0.933-8.68,2.697l-0.52,0.358l0.306,0.553
		c2.705,4.88,7.844,7.911,13.414,7.911c3.122,0,6.122-0.932,8.68-2.694l0.52-0.36l-0.306-0.553
		C2759.051,1378.721,2753.911,1375.689,2748.342,1375.689z M2755.875,1382.699c-0.974,0.271-1.983,0.407-3.013,0.407
		c-2.788,0-5.479-1.049-7.534-2.908c0.974-0.271,1.984-0.407,3.014-0.407C2751.13,1379.791,2753.82,1380.84,2755.875,1382.699z"/>
	<path style="fill:#F57B20;" d="M2748.73,1392.904l-0.307-0.553c-2.703-4.881-7.843-7.913-13.414-7.913
		c-3.122,0-6.122,0.932-8.679,2.694l-0.52,0.36l0.306,0.553c2.703,4.881,7.843,7.913,13.414,7.913c3.122,0,6.122-0.932,8.68-2.694
		L2748.73,1392.904z M2742.543,1391.448c-0.974,0.271-1.983,0.407-3.012,0.407c-2.788,0-5.479-1.049-7.534-2.908
		c0.974-0.271,1.984-0.407,3.014-0.407C2737.798,1388.54,2740.488,1389.589,2742.543,1391.448z"/>
	<path style="fill:#F57B20;" d="M2712.185,1395.368c0.4,0,0.787-0.114,1.118-0.331l72.383-47.033
		c0.263-0.171,0.478-0.395,0.636-0.656c0.839,0.135,1.576,0.2,2.284,0.2c4.105,0,7.958-1.593,10.849-4.484
		c1.999-1.998,3.379-4.469,4.041-7.184c0.219,0.099,0.454,0.162,0.702,0.162c0.335,0,0.659-0.097,0.933-0.276l13.355-8.678
		c0.385-0.25,0.65-0.635,0.744-1.085c0.095-0.447,0.008-0.904-0.241-1.286c-0.319-0.488-0.857-0.779-1.438-0.779
		c-0.334,0-0.656,0.097-0.929,0.277l-13.355,8.678c-0.385,0.25-0.65,0.635-0.744,1.083c-0.007,0.036,0.004,0.071-0.001,0.107
		c-1.165-0.278-2.355-0.451-3.559-0.451c-4.106,0-7.959,1.592-10.849,4.484c-1.716,1.716-2.964,3.777-3.714,6.131
		c-0.341,0.025-0.666,0.133-0.949,0.317l-72.384,47.035c-0.948,0.616-1.218,1.889-0.602,2.837
		C2710.846,1395.019,2711.488,1395.368,2712.185,1395.368z M2789.175,1343.431c0.497-0.88,1.114-1.69,1.84-2.417
		c1.983-1.983,4.586-3.131,7.382-3.269c-0.497,0.88-1.114,1.689-1.84,2.416C2794.573,1342.146,2791.969,1343.294,2789.175,1343.431z
		"/>
	<path style="fill:#F57B20;" d="M2803.936,1354.097l11.941-7.761c0.385-0.25,0.65-0.634,0.745-1.083
		c0.095-0.448,0.01-0.905-0.241-1.289c-0.319-0.487-0.856-0.778-1.438-0.778c-0.333,0-0.654,0.097-0.929,0.276l-11.944,7.762
		c-0.384,0.25-0.648,0.634-0.742,1.083c-0.095,0.447-0.01,0.904,0.24,1.287c0.319,0.488,0.855,0.779,1.436,0.779
		C2803.338,1354.373,2803.662,1354.276,2803.936,1354.097z"/>
	<path style="fill:#F57B20;" d="M2818.034,1336.436c0.094-0.447,0.008-0.904-0.24-1.282c-0.316-0.49-0.854-0.782-1.438-0.782
		c-0.334,0-0.656,0.096-0.932,0.276l-13.355,8.679c-0.384,0.25-0.648,0.634-0.742,1.083c-0.095,0.447-0.01,0.904,0.24,1.287
		c0.319,0.488,0.855,0.778,1.436,0.778c0.335,0,0.659-0.096,0.933-0.276l13.355-8.68
		C2817.676,1337.27,2817.939,1336.885,2818.034,1336.436z"/>
	<path style="fill:#F57B20;" d="M2777.428,1346.732l0.535-0.336c2.633-1.646,4.68-4.03,5.92-6.895
		c2.21-5.111,1.471-11.032-1.933-15.453l-0.387-0.501l-0.535,0.336c-2.634,1.647-4.682,4.031-5.922,6.895
		c-2.212,5.111-1.469,11.032,1.934,15.453L2777.428,1346.732z M2780.443,1329.803c0.889,2.625,0.783,5.51-0.324,8.069
		c-0.409,0.945-0.936,1.817-1.572,2.604c-0.889-2.625-0.783-5.51,0.324-8.069C2779.28,1331.462,2779.807,1330.59,2780.443,1329.803z
		"/>
	<path style="fill:#F57B20;" d="M2764.103,1355.491l0.535-0.335c2.634-1.646,4.682-4.03,5.922-6.894
		c2.212-5.112,1.47-11.033-1.934-15.453l-0.387-0.5l-0.535,0.335c-2.633,1.645-4.68,4.029-5.92,6.894
		c-2.213,5.111-1.472,11.033,1.933,15.453L2764.103,1355.491z M2767.119,1338.564c0.889,2.625,0.783,5.51-0.324,8.069
		c-0.408,0.945-0.936,1.817-1.572,2.603c-0.889-2.625-0.783-5.51,0.324-8.069C2765.956,1340.222,2766.483,1339.35,2767.119,1338.564
		z"/>
	<path style="fill:#F57B20;" d="M2750.779,1364.251l0.535-0.335c2.633-1.644,4.68-4.029,5.922-6.894
		c2.212-5.112,1.469-11.033-1.934-15.453l-0.387-0.501l-0.535,0.336c-2.634,1.646-4.681,4.03-5.92,6.894
		c-2.213,5.111-1.472,11.033,1.933,15.453L2750.779,1364.251z M2753.794,1347.324c0.889,2.625,0.783,5.51-0.324,8.069
		c-0.409,0.945-0.934,1.816-1.57,2.603c-0.889-2.624-0.783-5.51,0.324-8.069C2752.632,1348.983,2753.158,1348.111,2753.794,1347.324
		z"/>
	<path style="fill:#F57B20;" d="M2737.455,1373.011l0.535-0.335c2.633-1.645,4.68-4.029,5.92-6.894
		c2.212-5.111,1.472-11.032-1.933-15.453l-0.387-0.501l-0.535,0.335c-2.634,1.645-4.681,4.03-5.922,6.895
		c-2.212,5.112-1.469,11.034,1.934,15.452L2737.455,1373.011z M2740.47,1356.084c0.889,2.626,0.783,5.512-0.324,8.069
		c-0.408,0.944-0.934,1.816-1.57,2.603c-0.891-2.623-0.784-5.509,0.323-8.068C2739.307,1357.743,2739.834,1356.871,2740.47,1356.084
		z"/>
	<path style="fill:#F57B20;" d="M2724.13,1381.773l0.535-0.335c2.634-1.645,4.681-4.03,5.922-6.896
		c2.212-5.111,1.47-11.033-1.934-15.453l-0.387-0.501l-0.535,0.336c-2.634,1.646-4.681,4.031-5.92,6.895
		c-2.212,5.111-1.471,11.033,1.933,15.453L2724.13,1381.773z M2727.145,1364.845c0.889,2.625,0.783,5.509-0.323,8.068
		c-0.408,0.944-0.936,1.817-1.572,2.603c-0.889-2.625-0.783-5.509,0.324-8.068
		C2725.983,1366.504,2726.509,1365.632,2727.145,1364.845z"/>
	<path style="fill:#F57B20;" d="M2785.888,1329.224c0.34,0,0.669-0.099,0.945-0.285l11.868-7.88
		c0.786-0.522,1.001-1.586,0.479-2.375c-0.319-0.479-0.851-0.765-1.427-0.765c-0.339,0-0.666,0.1-0.944,0.287l-11.868,7.879
		c-0.786,0.522-1.001,1.586-0.481,2.373C2784.778,1328.937,2785.311,1329.224,2785.888,1329.224z"/>
	<path style="fill:#F57B20;" d="M2791.708,1331.597c0.32,0.478,0.853,0.763,1.426,0.763c0.34,0,0.67-0.099,0.947-0.285l13.271-8.811
		c0.786-0.522,1.001-1.586,0.481-2.374c-0.319-0.48-0.853-0.767-1.43-0.767c-0.339,0-0.667,0.1-0.943,0.287l-13.271,8.81
		C2791.403,1329.742,2791.186,1330.806,2791.708,1331.597z"/>
	<path style="fill:#F57B20;" d="M2793.404,1429.848c0.261,0.058,0.809,0.158,1.539,0.158c0.48,0,1.074-0.057,1.713-0.2
		c-0.276,0.166-0.55,0.309-0.829,0.499c-0.779,0.531-0.983,1.598-0.451,2.383c0.321,0.466,0.853,0.745,1.418,0.745
		c0.344,0,0.677-0.104,0.96-0.297c1.646-1.12,3.134-1.688,4.421-1.688c0.323,0,0.637,0.037,0.934,0.109
		c1.632,0.392,2.446,1.809,2.451,1.818c0.298,0.554,0.876,0.899,1.508,0.899c0.279,0,0.559-0.069,0.802-0.199
		c0.405-0.215,0.701-0.573,0.836-1.01c0.134-0.439,0.089-0.903-0.124-1.302c-0.057-0.112-1.457-2.74-4.628-3.525
		c-0.576-0.142-1.175-0.212-1.78-0.212c-0.882,0-1.797,0.176-2.733,0.476c1.402-1.072,2.43-2.646,3.054-4.722
		c0.27,0.985,0.78,2.138,1.793,3.175c1.648,1.686,4.076,2.54,7.218,2.54c0.253,0,0.512-0.005,0.772-0.016
		c0.458-0.019,0.881-0.217,1.192-0.554c0.309-0.336,0.469-0.774,0.449-1.227c-0.04-0.951-0.746-1.641-1.777-1.641
		c0,0-0.406,0.012-0.599,0.012c-2.198,0-3.81-0.501-4.789-1.49c-1.13-1.144-1.132-2.688-1.129-2.84
		c0.057-0.938-0.659-1.751-1.716-1.816c-0.421,0-0.802,0.165-1.102,0.423c-0.248-0.471-0.684-0.837-1.252-0.918
		c-0.083-0.012-0.165-0.018-0.245-0.018c-0.855,0-1.565,0.621-1.688,1.478c-0.347,2.477-1.163,4.169-2.426,5.028
		c-0.801,0.548-1.673,0.662-2.262,0.662c-0.44,0-0.734-0.064-0.734-0.064c-0.135-0.031-0.272-0.048-0.408-0.048
		c-0.783,0-1.464,0.53-1.659,1.294C2791.906,1428.677,2792.462,1429.61,2793.404,1429.848z"/>
	<path style="fill:#F57B20;" d="M2780.262,1408.075c0,0-0.403,0.012-0.595,0.012c-2.202,0-3.815-0.503-4.795-1.493
		c-1.179-1.192-1.128-2.83-1.128-2.836c0.06-0.938-0.656-1.751-1.581-1.813l-0.147-0.007c-0.417,0-0.794,0.165-1.09,0.421
		c-0.042-0.081-0.063-0.171-0.119-0.246c-0.275-0.366-0.678-0.603-1.147-0.67l-0.211-0.012c-0.865,0-1.583,0.618-1.707,1.474
		c-0.346,2.476-1.162,4.168-2.426,5.03c-0.802,0.549-1.672,0.663-2.261,0.663c-0.44,0-0.731-0.063-0.731-0.063
		c-0.134-0.034-0.271-0.052-0.409-0.052c-0.789,0-1.471,0.532-1.66,1.294c-0.231,0.915,0.324,1.848,1.245,2.082
		c0.158,0.038,0.738,0.163,1.561,0.163c0.48,0,1.076-0.057,1.716-0.201c-0.277,0.167-0.551,0.31-0.831,0.5
		c-0.779,0.53-0.983,1.596-0.452,2.382c0.323,0.466,0.851,0.745,1.417,0.745c0.344,0,0.677-0.102,0.961-0.297
		c1.648-1.12,3.134-1.688,4.419-1.688c0.323,0,0.637,0.037,0.936,0.11c1.629,0.391,2.449,1.809,2.453,1.815
		c0.297,0.556,0.876,0.9,1.508,0.9c0.279,0,0.557-0.069,0.801-0.199c0.406-0.215,0.703-0.573,0.838-1.012
		c0.134-0.437,0.089-0.902-0.125-1.303c-0.059-0.112-1.478-2.743-4.629-3.522c-0.575-0.142-1.173-0.214-1.777-0.214
		c-0.883,0-1.799,0.176-2.735,0.477c1.403-1.073,2.432-2.648,3.056-4.725c0.27,0.986,0.78,2.142,1.792,3.178
		c1.647,1.686,4.076,2.541,7.221,2.541c0.249,0,0.509-0.005,0.767-0.016c0.458-0.018,0.881-0.214,1.192-0.552
		c0.311-0.336,0.47-0.774,0.451-1.23C2782,1408.81,2781.245,1408.075,2780.262,1408.075z"/>
	<path style="fill:#F57B20;" d="M2696.086,1436.038v-0.027l-0.071-0.144c-0.187-0.38-0.402-0.757-0.632-1.115
		c-0.131-0.206-0.271-0.399-0.484-0.688l-0.369-0.467c-0.185-0.221-0.377-0.441-0.607-0.682l-0.346-0.335
		c-0.392-0.37-0.794-0.703-1.231-1.017l-0.123-0.09c-0.116-0.086-0.231-0.172-0.346-0.242c-0.172-0.112-0.351-0.211-0.62-0.358
		c-0.249-0.143-0.5-0.267-0.866-0.439c-0.14-0.063-0.279-0.124-0.427-0.182c-0.543-0.208-0.971-0.342-1.389-0.434
		c-0.394-0.086-0.775-0.134-1.117-0.163l-0.271-0.023c-0.146-0.008-0.29-0.012-0.435-0.012c-0.628,0-1.237,0.075-1.878,0.241
		l-0.027,0.01c-0.97,0.26-1.809,0.697-2.467,1.277c-0.107,0.086-0.177,0.176-0.203,0.217c-0.207,0.188-0.388,0.398-0.552,0.607
		l-0.095,0.114c-0.088,0.106-0.176,0.211-0.255,0.332c-0.198,0.305-0.362,0.613-0.502,0.937l-0.127,0.136l0.01,0.15
		c-0.368,0.978-0.51,2.028-0.419,3.124c0.346,4.272,4.019,8.383,8.364,9.359c0.599,0.132,1.209,0.2,1.813,0.2
		c0.214,0,0.427-0.008,0.635-0.026c1.448-0.117,2.752-0.646,3.774-1.529c1.55-1.344,2.302-3.333,2.118-5.598
		C2696.856,1438.133,2696.569,1437.082,2696.086,1436.038z M2685.349,1434.384c0.042-0.031,0.09-0.056,0.208-0.123
		c0.109-0.057,0.215-0.117,0.341-0.157c0.084-0.026,0.174-0.042,0.302-0.061c0.154-0.03,0.301-0.061,0.507-0.065l0.007-0.696
		c0,0,0,0,0,0l0.098,0.698c0.302,0.004,0.564,0.031,0.816,0.087c0.274,0.06,0.542,0.155,0.814,0.267l0.167,0.068
		c0.546,0.236,1.079,0.565,1.66,1.041c0.44,0.375,0.843,0.813,1.19,1.295c-0.443,0.332-0.989,0.413-1.409,0.413
		c-0.281,0-0.579-0.035-0.889-0.105c-1.433-0.316-2.863-1.31-3.837-2.644C2685.333,1434.397,2685.341,1434.39,2685.349,1434.384z
		 M2688.209,1441.299c0.616,0.136,1.229,0.206,1.824,0.206c0.203,0,0.405-0.008,0.605-0.025c0.552-0.045,1.094-0.155,1.613-0.328
		c-0.078,0.12-0.172,0.232-0.286,0.331c-0.372,0.321-0.896,0.492-1.517,0.492c-0.283,0-0.583-0.035-0.891-0.102
		c-0.526-0.12-1.053-0.334-1.558-0.624C2688.069,1441.267,2688.139,1441.283,2688.209,1441.299z"/>
	<path style="fill:#F57B20;" d="M2715.928,1450.874c0.478,0.105,0.957,0.157,1.42,0.157c0.162,0,0.323-0.005,0.485-0.019
		c1.149-0.094,2.19-0.519,3.013-1.23c1.226-1.066,1.847-2.695,1.702-4.469c-0.264-3.262-3.058-6.394-6.363-7.132
		c-0.475-0.105-0.952-0.158-1.419-0.158c-1.339,0-2.583,0.445-3.503,1.249c-1.226,1.064-1.845,2.693-1.7,4.467
		C2709.826,1447.001,2712.621,1450.134,2715.928,1450.874z M2714.121,1442.562c0.117-0.101,0.286-0.162,0.501-0.18l0.137-0.005
		c0.15,0,0.308,0.021,0.481,0.061c1.464,0.326,2.849,1.835,2.962,3.228c0.022,0.271,0.003,0.636-0.218,0.828
		c-0.172,0.151-0.43,0.184-0.618,0.184c-0.151,0-0.316-0.02-0.497-0.063c-1.468-0.321-2.854-1.83-2.969-3.229
		C2713.882,1443.165,2713.888,1442.765,2714.121,1442.562z"/>
	<path style="fill:#F57B20;" d="M2674.605,1438.584c-0.477-0.106-0.956-0.161-1.426-0.161c-1.347,0-2.559,0.433-3.504,1.253
		c-1.224,1.066-1.844,2.693-1.7,4.46c0.263,3.258,3.058,6.392,6.367,7.137c0.477,0.102,0.953,0.154,1.416,0.154
		c0.168,0,0.333-0.007,0.493-0.02c1.165-0.094,2.208-0.52,3.015-1.23c1.224-1.065,1.844-2.69,1.701-4.459
		C2680.703,1442.452,2677.908,1439.318,2674.605,1438.584z M2672.533,1442.958c0.117-0.101,0.289-0.162,0.5-0.18l0.114-0.004
		c0.148,0,0.32,0.021,0.505,0.061c1.469,0.327,2.857,1.839,2.97,3.237c0.022,0.27,0.003,0.63-0.221,0.821
		c-0.136,0.119-0.354,0.181-0.631,0.181c-0.151,0-0.316-0.019-0.488-0.057c-1.465-0.326-2.851-1.837-2.964-3.235
		C2672.299,1443.511,2672.318,1443.148,2672.533,1442.958z"/>
	<path style="fill:#F57B20;" d="M2670.764,1424.599c-0.21-2.584-2.419-5.065-5.03-5.652c-0.385-0.086-0.773-0.129-1.155-0.129
		c-1.099,0-2.133,0.37-2.915,1.047c-1.023,0.899-1.542,2.251-1.425,3.709c0.211,2.584,2.419,5.066,5.032,5.653
		c0.396,0.087,0.789,0.131,1.165,0.131c0.129,0,0.259-0.005,0.385-0.016c0.957-0.078,1.826-0.437,2.513-1.038
		C2670.363,1427.412,2670.884,1426.061,2670.764,1424.599z M2664.781,1423.199c0.782,0.173,1.579,1.026,1.638,1.75
		c0.002,0.027,0,0.03,0,0.047c-0.06,0-0.13-0.008-0.195-0.022c-0.783-0.178-1.581-1.031-1.64-1.754
		c-0.004-0.054-0.001-0.095-0.014-0.095c-0.008,0-0.022,0.015-0.045,0.052l0.059-0.686c0,0,0,0,0.001,0v0.685
		C2664.649,1423.176,2664.713,1423.183,2664.781,1423.199z"/>
	<path style="fill:#F57B20;" d="M2704.202,1431.793c-0.362-0.08-0.729-0.121-1.087-0.121c-1.046,0-2.032,0.354-2.782,1.001
		c-0.978,0.859-1.472,2.149-1.359,3.537c0.196,2.435,2.272,4.772,4.726,5.321c0.369,0.082,0.738,0.123,1.098,0.123
		c0.125,0,0.249-0.004,0.375-0.015c0.906-0.075,1.732-0.414,2.396-0.985c0.983-0.859,1.483-2.149,1.369-3.538
		C2708.738,1434.678,2706.658,1432.341,2704.202,1431.793z M2704.524,1437.237c-0.477-0.163-0.974-0.658-1.148-1.158
		C2703.858,1436.245,2704.349,1436.734,2704.524,1437.237z"/>
	<path style="fill:#F57B20;" d="M2735.035,1447.356c-0.04-0.505-0.263-0.99-0.635-1.37c-0.366-0.362-0.853-0.584-1.29-0.613
		l-0.104-0.026l-0.054-0.005c-1.098-0.116-2.332-0.823-3.218-1.843c-0.415-0.484-0.735-1.02-0.971-1.648
		c-0.054-0.138-0.11-0.271-0.145-0.413c-0.053-0.219-0.09-0.433-0.101-0.629l0.013-0.353c0-0.05-0.003-0.106,0.029-0.256
		l0.073-0.263l0.031-0.076c0.033-0.082,0.082-0.161,0.178-0.283c0.063-0.086,0.158-0.166,0.375-0.286
		c0.136-0.069,0.279-0.12,0.492-0.168c0.099-0.016,0.206-0.02,0.313-0.02l0.244-0.003v0.005c0.147,0.012,0.298,0.035,0.444,0.069
		c0.104,0.029,0.219,0.063,0.406,0.127c0.061,0.015,0.123,0.033,0.191,0.056c0.128,0.044,0.255,0.067,0.342,0.08
		c0.05,0.014,0.105,0.026,0.199,0.035l0.162,0.005c0.104,0,0.206-0.007,0.228-0.014l0.195-0.004l0.059-0.033
		c0.076-0.016,0.151-0.037,0.225-0.061h0.061l0.15-0.076c0.065-0.034,0.128-0.071,0.263-0.154l0.151-0.099
		c0.416-0.306,0.704-0.761,0.81-1.261c0.049-0.204,0.065-0.422,0.048-0.652l-0.268-3.293c-0.274-3.389-2.132-6.525-4.915-8.354
		l-27.619-22.188c-0.387-0.311-0.872-0.481-1.366-0.481c-0.566,0-1.103,0.215-1.519,0.612c-0.215,0.21-0.532,0.255-0.761,0.255
		c-0.159,0-0.332-0.02-0.515-0.063c-1.58-0.355-3.073-1.984-3.194-3.487c-0.021-0.253,0.01-0.49,0.088-0.677
		c0.36-0.881,0.091-1.918-0.652-2.521l-4.735-3.811l-0.194-0.134c-2.272-1.454-4.851-2.257-7.262-2.257
		c-1.636,0-3.12,0.354-4.433,1.062l-20.958,12.293c-2.638,1.404-4.185,4.322-3.941,7.434l1.888,23.265
		c0.052,0.648,0.385,1.235,0.923,1.615c0.365,0.253,0.798,0.388,1.25,0.388c0.185,0,0.37-0.023,0.567-0.072
		c0.192-0.053,0.396-0.079,0.607-0.079c0.199,0,0.406,0.023,0.614,0.069c1.967,0.444,3.826,2.477,3.978,4.351
		c0.05,0.622-0.102,1.12-0.427,1.399c-0.259,0.222-0.63,0.34-1.077,0.34c-0.217,0-0.449-0.027-0.687-0.08
		c-0.538-0.125-1.08-0.375-1.614-0.742c-0.362-0.245-0.786-0.373-1.224-0.373c-0.385,0-0.764,0.101-1.098,0.294
		c-0.719,0.419-1.138,1.228-1.07,2.061l0.259,3.194c0.283,3.5,2.875,6.336,6.272,6.89l66.063,13.772
		c0.43,0.074,0.866,0.11,1.291,0.11c0.2,0,0.398-0.008,0.594-0.025c1.672-0.135,3.281-0.844,4.53-1.995
		c1.742-1.606,2.631-3.876,2.439-6.228L2735.035,1447.356z M2707.003,1454.709c-0.486-0.163-0.981-0.656-1.152-1.162
		C2706.336,1453.707,2706.829,1454.197,2707.003,1454.709z M2707.273,1459.123c0.127,0,0.252-0.004,0.373-0.015
		c0.915-0.074,1.745-0.414,2.4-0.986c0.982-0.858,1.48-2.148,1.366-3.538c-0.196-2.435-2.276-4.772-4.734-5.321
		c-0.366-0.08-0.734-0.121-1.095-0.121c-1.062,0-2.021,0.344-2.773,0.998c-0.978,0.855-1.472,2.145-1.359,3.538
		c0.195,2.404,2.217,4.701,4.621,5.288l-44.159-9.211c-1.388-0.229-2.46-1.314-2.687-2.686c0.349,0.05,0.696,0.075,1.038,0.075
		c1.525,0,2.891-0.486,3.948-1.406c1.397-1.211,2.076-3,1.909-5.036c-0.305-3.771-3.541-7.394-7.368-8.249
		c-0.248-0.054-0.496-0.097-0.741-0.125l-1.294-15.932c0.026,0.003,0.049,0.005,0.073,0.007l30.355,6.43
		c0.027,0.095,0.057,0.188,0.087,0.279c0.072,0.226,0.151,0.447,0.255,0.703c0.076,0.163,0.15,0.317,0.223,0.458
		c0.106,0.218,0.222,0.428,0.339,0.611c0.094,0.162,0.204,0.324,0.311,0.475c0.133,0.193,0.282,0.379,0.504,0.651
		c0.097,0.117,0.189,0.23,0.294,0.34c0.143,0.155,0.298,0.297,0.455,0.441l0.471-0.515l-0.331,0.643
		c0.112,0.104,0.226,0.207,0.336,0.294c0.199,0.163,0.406,0.309,0.62,0.447c0.146,0.105,0.281,0.199,0.411,0.274
		c0.241,0.153,0.496,0.272,0.748,0.385c0.129,0.067,0.26,0.134,0.4,0.193c0.4,0.166,0.81,0.297,1.213,0.388
		c0.392,0.09,0.806,0.139,1.249,0.147l0.217,0.004c0,0,0.43-0.003,0.505-0.008c0.23-0.018,0.456-0.061,0.596-0.094l0.196-0.026
		c0.354-0.076,0.715-0.202,1.064-0.365c0.105-0.042,0.211-0.093,0.275-0.133c0.396-0.206,0.708-0.413,0.968-0.643
		c0.317-0.268,0.567-0.583,0.802-0.907l0.121-0.174c0.212-0.339,0.357-0.616,0.502-0.977c0.022-0.057,0.042-0.116,0.061-0.174
		l26.712,5.649c1.523,0.199,2.717,1.453,2.841,2.984l0.046,0.572c-0.231,0.015-0.46,0.042-0.686,0.08
		c-0.384,0.063-0.779,0.172-1.188,0.328c-0.098,0.041-0.189,0.083-0.365,0.167c-0.256,0.121-0.504,0.257-0.714,0.403
		c-0.105,0.064-0.2,0.136-0.364,0.259c-0.24,0.193-0.46,0.399-0.691,0.648l-0.104,0.097l-0.026,0.004l-0.167,0.232
		c-0.097,0.133-0.177,0.279-0.256,0.425l-0.113,0.206l-0.091,0.15c-0.067,0.108-0.132,0.215-0.234,0.43
		c-0.095,0.225-0.158,0.462-0.217,0.699l-0.067,0.241c-0.034,0.106-0.067,0.215-0.091,0.342c-0.059,0.331-0.086,0.686-0.091,1.229
		c-0.007,0.09-0.012,0.18-0.01,0.298c0.018,0.444,0.104,0.88,0.198,1.323l0.025,0.161c0.099,0.414,0.244,0.835,0.427,1.249
		l0.034,0.117l0.027,0.06c0.071,0.154,0.154,0.307,0.278,0.528c0.097,0.192,0.198,0.375,0.297,0.541
		c0.041,0.086,0.08,0.162,0.127,0.233c0.104,0.158,0.221,0.309,0.342,0.464l0.169,0.226c0,0,0.292,0.385,0.354,0.459
		c0.278,0.327,0.591,0.644,0.809,0.819c0.052,0.06,0.158,0.162,0.199,0.197c0.078,0.072,0.162,0.135,0.245,0.198l0.304,0.234
		c0.285,0.222,0.576,0.42,0.823,0.564c0.071,0.053,0.153,0.102,0.208,0.134c0.312,0.185,0.64,0.349,0.966,0.494l0.154,0.069
		c0.225,0.093,0.447,0.18,0.67,0.256l0.869,10.702c0.082,1.013-0.298,1.984-1.046,2.668c-0.613,0.565-1.402,0.877-2.219,0.877
		c-0.161,0-0.321-0.012-0.445-0.031l-21.687-4.523C2706.619,1459.079,2706.947,1459.123,2707.273,1459.123z M2696.294,1407.861
		c0.489,0.112,0.98,0.167,1.461,0.167c0.742,0,1.447-0.129,2.099-0.388l22.689,18.227l-22.777-4.82
		c-1.041-2.574-3.424-4.659-6.05-5.249c-0.489-0.108-0.98-0.163-1.46-0.163c-1.388,0-2.637,0.447-3.613,1.291
		c-0.488,0.424-0.888,0.941-1.181,1.516l-29.986-6.333c-0.414-0.044-0.914-0.219-1.118-1.184c-0.015-0.075-0.035-0.139-0.06-0.197
		c0.041-1.23,0.67-2.283,1.728-2.847l20.962-12.292c0.646-0.347,1.419-0.523,2.3-0.523c1.549,0,3.269,0.552,4.783,1.506l3.628,2.911
		c-0.024,0.323-0.023,0.656,0.006,0.996C2689.977,1403.862,2692.873,1407.105,2696.294,1407.861z M2691.237,1420.846
		c0.027-0.294,0.116-0.504,0.259-0.63c0.145-0.123,0.352-0.198,0.599-0.218l0.148-0.005c0.166,0,0.341,0.022,0.528,0.065
		c1.458,0.322,2.866,1.757,3.141,3.241l0.052,0.238c0.024,0.309-0.001,0.726-0.268,0.957c-0.206,0.18-0.505,0.217-0.719,0.217
		c-0.167,0-0.349-0.022-0.558-0.068c-0.176-0.035-0.358-0.093-0.561-0.18c-1.171-0.488-2.183-1.595-2.518-2.75
		c-0.048-0.163-0.078-0.334-0.093-0.5l0.007-0.259L2691.237,1420.846z"/>
</g>
</svg>
