<?xml version="1.0" encoding="iso-8859-1"?>
<!-- Generator: Adobe Illustrator 22.0.1, SVG Export Plug-In . SVG Version: 6.00 Build 0)  -->
<svg version="1.1" id="Capa_1" xmlns="http://www.w3.org/2000/svg" xmlns:xlink="http://www.w3.org/1999/xlink" x="0px" y="0px"
	 viewBox="1487.955 1317.919 150 150" style="enable-background:new 1487.955 1317.919 150 150;" xml:space="preserve">
<g>
	<path style="fill:#F57B20;" d="M1631.787,1363.105c-11.525-26.59-38.003-45.186-68.832-45.186s-57.307,18.596-68.832,45.186
		c-3.969,9.14-6.168,19.221-6.168,29.814c0,7.444,1.081,14.637,3.112,21.429c9.214,30.978,37.91,53.571,71.888,53.571
		c2.916,0,5.795-0.168,8.618-0.503c1.574-0.168,3.121-0.391,4.658-0.671c5.171-0.922,10.165-2.376,14.907-4.304
		c1.584-0.643,3.14-1.332,4.658-2.078c18.69-9.121,33.028-25.779,39.047-46.016c2.031-6.792,3.112-13.984,3.112-21.429
		C1637.955,1382.326,1635.756,1372.245,1631.787,1363.105z M1627.017,1414.347c-5.385,16.062-16.649,29.441-31.22,37.584
		c-1.518,0.848-3.074,1.64-4.658,2.367c-4.705,2.171-9.699,3.811-14.907,4.854c-1.528,0.307-3.084,0.568-4.658,0.773
		c-2.823,0.354-5.702,0.541-8.618,0.541c-29.758,0-55.09-19.342-64.062-46.118c-2.264-6.736-3.485-13.938-3.485-21.429
		c0-10.696,2.497-20.814,6.941-29.814c11.031-22.332,34.053-37.733,60.605-37.733s49.574,15.401,60.605,37.733
		c4.444,9,6.941,19.118,6.941,29.814C1630.501,1400.409,1629.281,1407.611,1627.017,1414.347z"/>
	<path style="fill:#F57B20;" d="M1607.875,1414.083c-2.49,6.401-6.398,12.283-11.352,17.106v-1.7l-0.008-0.479
		c-0.078-2.078-0.668-4.127-1.711-5.926c-0.826-1.429-1.907-2.674-3.218-3.703c-2.271-1.778-5.004-2.717-7.901-2.717
		c-2.897,0-5.629,0.939-7.902,2.717c-1.308,1.029-2.391,2.274-3.218,3.703c-1.043,1.802-1.634,3.852-1.708,5.907
		c-0.011,0.173-0.011,0.338-0.011,0.511v14.681c-2.588,0.43-5.239,0.648-7.891,0.648c-19.705,0-37.757-12.357-44.92-30.748
		l-0.18-0.463h-4.536l0.356,0.975c7.518,20.626,27.321,34.484,49.279,34.484c2.954,0,5.895-0.244,8.735-0.726
		c1.579-0.26,3.171-0.604,4.727-1.021c5.35-1.414,10.436-3.674,15.12-6.719c1.683-1.102,3.271-2.271,4.72-3.474
		c7.248-5.958,12.772-13.753,15.976-22.543l0.356-0.975h-4.534L1607.875,1414.083z M1581.327,1430.914v10.277
		c-1.434,0.593-2.898,1.118-4.37,1.563v-13.252c0-0.13,0.009-0.264,0.017-0.421c0.123-2.02,1.144-3.857,2.803-5.045
		c1.141-0.826,2.491-1.261,3.907-1.261c1.416,0,2.766,0.436,3.908,1.263c1.658,1.186,2.678,3.025,2.8,5.048
		c0.009,0.133,0.018,0.277,0.018,0.417v6.716c-1.25,0.872-2.558,1.693-3.906,2.45v-7.755H1581.327z"/>
	<path style="fill:#F57B20;" d="M1523.489,1367.791c2.003,4.64,6.615,7.891,11.981,7.891c7.044,0,12.792-5.59,13.034-12.578h-4.658
		c-0.252,4.407-3.913,7.919-8.376,7.919c-4.37,0-7.975-3.373-8.348-7.649c-0.009-0.093-0.019-0.177-0.028-0.27h-4.658
		c0.019,0.438,0.047,0.866,0.112,1.286C1522.706,1365.583,1523.023,1366.729,1523.489,1367.791z"/>
	<path style="fill:#F57B20;" d="M1589.507,1375.683c5.683,0,10.519-3.633,12.307-8.711c0.401-1.137,0.643-2.338,0.717-3.596
		c0-0.093,0.01-0.177,0.01-0.27h-4.658c-0.252,4.407-3.913,7.919-8.376,7.919c-4.463,0-8.124-3.512-8.376-7.919h-4.658
		C1576.716,1370.093,1582.464,1375.683,1589.507,1375.683z"/>
</g>
</svg>
