<?xml version="1.0" encoding="iso-8859-1"?>
<!-- Generator: Adobe Illustrator 22.0.1, SVG Export Plug-In . SVG Version: 6.00 Build 0)  -->
<svg version="1.1" id="Layer_1" xmlns="http://www.w3.org/2000/svg" xmlns:xlink="http://www.w3.org/1999/xlink" x="0px" y="0px"
	 viewBox="0 0 113.39 113.39" style="enable-background:new 0 0 113.39 113.39;" xml:space="preserve">
<g>
	<g>
		<g>
			<g>
				<g>
					<path style="fill-rule:evenodd;clip-rule:evenodd;fill:#F47B20;" d="M82.614,20.992c-0.644,0.215-1.535,0.106-2.181-0.002
						l-0.319-0.072c-0.577-0.145-1.164-0.312-1.678-0.607c-0.429-0.247-0.891-0.438-1.208-0.668c-1.958-1.42-2.686-2.86-3.794-5.286
						c0.527-0.217,2.374,0.033,2.998,0.18l1.706,0.52c0.022,0.009,0.054,0.02,0.076,0.031c0.022,0.009,0.054,0.022,0.076,0.033
						l0.869,0.458c1.55,0.858,2.502,2.257,3.122,3.84C82.499,19.975,82.512,20.428,82.614,20.992z"/>
					<path style="fill-rule:evenodd;clip-rule:evenodd;fill:#F47B20;" d="M86.301,24.12c-1.277,1.411-5.129,2.309-6.37,2.174
						l-1.192-0.056c-1.008-0.162-2.686-0.416-3.583-0.835c-0.379-0.178-0.241-0.156-0.664-0.304
						c-0.243-0.085-0.104-0.024-0.375-0.152l-0.41-0.199c1.301-0.752,1.082-1.036,3.493-1.925c1.045-0.386,2.717-0.572,3.781-0.568
						c0.677,0,1.578,0.264,2.268,0.429c0.845,0.202,1.667,0.601,2.398,1.004C86.178,23.98,86.128,23.893,86.301,24.12z"/>
					<path style="fill-rule:evenodd;clip-rule:evenodd;fill:#F47B20;" d="M74.495,18.43c-1.438,0.713-3.107,0.739-4.59,0.384
						c-0.342-0.082-0.289-0.02-0.639-0.128l-0.839-0.316c-0.022-0.009-0.054-0.021-0.078-0.028
						c-1.496-0.527-3.755-2.246-4.331-3.187c0.709-0.431,3.512-0.728,4.559-0.531c0.247,0.046,0.525,0.089,0.735,0.126
						c0.438,0.076,0.292,0.028,0.724,0.175c1.433,0.483,2.614,1.123,3.53,2.316C74.078,17.903,73.894,17.415,74.495,18.43z"/>
					<path style="fill-rule:evenodd;clip-rule:evenodd;fill:#F47B20;" d="M68.045,19.489c-0.991,0.601-2.253,0.822-3.252,0.88
						c-1.006,0.056-2.543-0.147-3.46-0.488c-1.184-0.444-3.763-1.721-4.199-2.545c0.698-0.444,3.742-1.097,4.706-0.986
						c0.286,0.033,0.343,0.02,0.67,0.041l0.746,0.115c0.726,0.08,1.327,0.33,1.93,0.624C66.202,17.623,67.304,18.434,68.045,19.489z
						"/>
					<path style="fill-rule:evenodd;clip-rule:evenodd;fill:#F47B20;" d="M77.573,20.623c-0.004,0.03-0.035,0.045-0.028,0.085
						c0.007,0.039-0.022,0.065-0.03,0.082l-0.073,0.154c-0.685,1.255-3.31,2.82-4.938,3.024c-1.557,0.195-0.789,0.295-3.003,0.392
						c-0.854,0.037-1.904-0.152-2.77-0.26c0.011-0.024,0.024-0.083,0.043-0.069c0,0,0.273-0.52,0.78-0.989l0.371-0.36
						c0.019-0.019,0.037-0.045,0.056-0.063c1.446-1.628,4.64-2.771,6.805-2.519c0.295,0.033,0.392,0.017,0.683,0.041
						C75.947,20.181,77.226,20.378,77.573,20.623z"/>
					<path style="fill-rule:evenodd;clip-rule:evenodd;fill:#F47B20;" d="M67.442,21.618c-0.007,0.022-0.02,0.052-0.03,0.074
						l-0.078,0.223c-0.989,2.539-3.696,3.798-6.32,4.618l-1.286,0.143c0.011-0.392,0.082-0.668,0.247-1.073l0.295-0.639
						c0.716-1.663,2.799-3.339,4.585-3.824l1.372-0.26c0.653-0.156,0.763-0.202,1.312-0.035
						C67.598,21.287,67.592,21.211,67.442,21.618z"/>
					<path style="fill-rule:evenodd;clip-rule:evenodd;fill:#F47B20;" d="M59.833,24.808l-0.173,0.525
						c-0.406,1.071-1.526,2.421-2.526,3.135c-0.442,0.314-0.52,0.501-1.008,0.813c-0.449,0.286-0.91,0.59-1.427,0.767
						c-0.525-1.574-0.087-3.09,0.601-4.49l0.707-0.926c0.898-1.145,2.372-1.908,3.742-2.456
						C60.138,23.149,60.108,23.995,59.833,24.808z"/>
					<path style="fill-rule:evenodd;clip-rule:evenodd;fill:#F47B20;" d="M60.039,20.598c-0.284,0.388-1.316,1.036-1.774,1.273
						c-1.626,0.846-2.63,0.999-4.208,1.116l-1.286-0.043c-1.084-0.076-1.427-0.197-2.437-0.41c0.111-0.329,0.076-0.182,0.317-0.484
						c0.98-1.236,3.954-2.606,5.903-2.617c1.296-0.007,1.192,0.015,2.517,0.258c0.397,0.072,0.156,0.059,0.523,0.186l0.631,0.178
						C60.236,20.366,60.299,20.238,60.039,20.598z"/>
					<path style="fill-rule:evenodd;clip-rule:evenodd;fill:#F47B20;" d="M54.796,24.103c-0.75,1.459-2.127,2.407-3.75,3.02
						c-1.017,0.384-2.047,0.538-2.981,0.531c-0.522-0.005-0.518,0.108-1.229,0.045l-0.251-0.022
						c-0.314-0.039-0.004,0.056-0.334-0.057c0.139-0.791,1.452-2.094,2.233-2.565c1.266-0.767,2.591-1.201,4.033-1.255
						C52.917,23.784,54.521,23.858,54.796,24.103z"/>
					<path style="fill-rule:evenodd;clip-rule:evenodd;fill:#F47B20;" d="M48.104,31.765c-0.472,0.759-1.68,1.981-2.382,2.422
						c-0.765,0.483-1.775,1.077-2.641,1.336c-0.097-0.507-0.039-1.014,0.08-1.502c0.167-0.677,0.106-1.11,0.659-1.936
						c0.095-0.139,0.054-0.067,0.137-0.199l0.08-0.137c0.858-1.426,2.639-2.252,4.54-2.968
						C48.989,29.421,48.395,31.296,48.104,31.765z"/>
					<path style="fill-rule:evenodd;clip-rule:evenodd;fill:#F47B20;" d="M53.099,30.108c-0.143,0.293-0.117,0.184-0.254,0.416
						l-0.57,0.795c-0.546,0.59-0.785,0.913-1.507,1.492c-0.295,0.238-0.681,0.446-0.995,0.655c-0.49-0.872-0.353-1.329-0.329-2.081
						c0.006-0.16,0.011-0.329,0.043-0.483c0.009-0.05,0.111-0.446,0.115-0.458c0.34-1.19,0.91-1.648,1.656-2.43
						c0.464-0.484,1.266-0.952,2.005-1.238C53.893,27.713,53.589,29.109,53.099,30.108z"/>
				</g>
			</g>
			<path style="fill:#F47B20;" d="M89.74,24.376c0,0-6.549-0.282-6.671-8.518C83.069,15.858,90.641,16.489,89.74,24.376z"/>
			<path style="fill:#F47B20;" d="M92.41,28.708c0,0-5.632,3.829-12.373-1.066C80.036,27.643,86.73,23.206,92.41,28.708z"/>
		</g>
		<path style="fill:#F47B20;" d="M81.109,13.168c0,0,46.511,12.969,24.426,48.948C105.535,62.116,134.169,23.958,81.109,13.168z"/>
		<path style="fill:#F47B20;" d="M107.133,50.028c-0.022-1.721-0.201-3.443-0.563-5.101c-0.358-1.659-0.876-3.256-1.524-4.735
			c-0.648-1.481-1.412-2.849-2.233-4.08c-0.819-1.231-1.691-2.328-2.552-3.286c-1.724-1.919-3.391-3.289-4.602-4.182
			c-0.174-0.13-0.342-0.249-0.497-0.358c2.819-6.129-3.397-9.142-3.397-9.142c-1.951,6.697,0.464,8.787,2.006,9.435
			c0.321,0.204,0.759,0.498,1.287,0.884c1.167,0.859,2.784,2.185,4.455,4.037c0.833,0.924,1.678,1.982,2.469,3.168
			c0.791,1.184,1.53,2.499,2.153,3.92c0.624,1.422,1.125,2.953,1.47,4.546c0.351,1.591,0.524,3.246,0.548,4.904
			c0.009,0.83-0.024,1.66-0.089,2.484c-0.065,0.824-0.178,1.641-0.308,2.448c-0.035,0.202-0.072,0.403-0.11,0.603l-0.028,0.15
			l-0.011,0.065l-0.017,0.076l-0.067,0.303c-0.045,0.201-0.089,0.401-0.134,0.6c-0.05,0.193-0.102,0.384-0.152,0.575
			c-0.202,0.765-0.455,1.522-0.716,2.255c-0.533,1.465-1.164,2.844-1.819,4.123c-0.158,0.321-0.328,0.633-0.494,0.939
			c-0.167,0.308-0.327,0.611-0.499,0.902c-0.169,0.293-0.336,0.583-0.497,0.865c-0.171,0.28-0.338,0.553-0.501,0.822
			c-0.321,0.54-0.663,1.038-0.969,1.522c-0.319,0.475-0.624,0.928-0.91,1.351c-0.173,0.243-0.338,0.477-0.497,0.702
			c1.422-4.408,3.968-12.039,4.878-14.681c-0.282-0.47-2.159-1.455-2.629-1.268c-0.703,2.112-3.098,8.962-3.941,11.262
			c-1.737,3.142-3.848,6.099-5.866,6.005c-1.782-0.141-1.173-4.269,0.421-8.351c0.282-0.752,2.629-7.039,2.911-7.742
			c0.093-0.375-2.77-1.502-2.816-1.127c-0.563,1.173-3.191,8.165-3.471,8.962c-0.184,0.492-0.347,0.976-0.486,1.453
			c-0.941,2.313-3.939,6.862-6.359,6.343c-1.769-0.362-1.814-3.854-0.227-9.294c13.649-17.686,15.915-26.8,13.42-27.57
			c-5.984-1.86-14.283,19.18-16.277,26.072c-0.481,1.656-0.82,3.263-1.002,4.739c-1.425,2.465-3.302,4.633-5.678,5.858
			c-3.566,1.877-6.323,0.833-6.041-2.779c3.127-1.694,13.36-9.936,8.903-13.361c-2.3-1.689-8.022,0-11.072,8.399
			c-0.362,1.002-0.568,2.014-0.627,2.987l0,0.003l0,0.003c-0.05,0.826,0.006,1.622,0.164,2.359l0,0L62.536,69.1l-0.003,0.002
			c-0.126,0.088-2.254,1.544-3.397,1.427c-0.483-0.049-0.79-0.378-0.698-1.209c0.012-0.111,0.032-0.23,0.059-0.359l0-0.001
			c0,0,0.004-0.021,0.005-0.031c0.681-4.003,2.169-8.646,4.464-13.931c2.227-5.167,4.249-9.238,6.064-12.208
			c3.471-5.439,6.855-8.362,10.15-8.767c0.674-0.076,1.301-0.076,1.882,0c0.134,0,0.353,0.048,0.655,0.145
			c0.301,0.097,0.51,0.145,0.625,0.145c0.29,0,0.405-0.058,0.342-0.173c-0.225-0.425-0.967-0.694-2.224-0.811
			c-2.157-0.212-4.57,0.184-7.239,1.186c-2.049,0.754-3.575,1.457-4.576,2.112c-6.127,4.147-11.354,9.172-15.679,15.074
			c-1.934,2.602-4.03,5.68-6.289,9.229l-2.192,3.441c0.938-2.372,1.879-5.535,2.823-9.489l2.322-9.778
			c1.097-4.54,2.634-7.079,4.613-7.699c0,0,0.101-0.821-1.61-0.322h0c-0.875,0.166-1.789,0.362-2.743,0.708
			c-4.31,1.581-7.976,4.862-10.998,9.877c-1.548,2.565-3.326,5.816-5.331,9.77c-4.976,9.76-10.463,15.521-16.463,17.295
			c-1.5,0.444-3.09,0.607-4.772,0.49c-1.945-0.173-3.757-0.753-5.437-1.737c-1.839-1.099-3.23-2.536-4.173-4.311
			c-1.221-2.296-1.515-4.841-0.88-7.638c0.449-1.986,1.324-3.733,2.626-5.236c3.143-3.664,6.903-5.498,11.282-5.498
			c1.871,0,3.671,0.377,5.401,1.128c2.103,0.908,3.616,2.228,4.538,3.965c0.483,0.906,0.707,1.581,0.672,2.025
			c0.002,0.076,0.024,0.154,0.065,0.23c0.041,0.078,0.117,0.165,0.226,0.262c0.11,0.097,0.202,0.145,0.278,0.145
			c0.193,0,0.254-0.377,0.182-1.129c-0.254-0.984-0.678-1.889-1.273-2.719c-2.025-2.758-4.939-4.301-8.739-4.629
			c-1.374-0.117-2.818-0.078-4.336,0.115l-0.952,0.115c-3.081,0.445-5.691,1.632-7.828,3.56c-2.224,1.986-3.469,4.358-3.738,7.117
			c-0.29,3.009,0.237,5.777,1.581,8.303c2.246,4.225,6.007,6.51,11.284,6.857c7.779,0.522,13.734-2.517,17.864-9.114
			c0.919-1.464,2.072-3.74,3.458-6.827l3.263-7.029c0.848-1.814,1.78-3.597,2.795-5.353c2.864-4.841,6.248-8.052,10.153-9.634
			c0.388-0.175,1.062-0.395,2.018-0.666c-4.483,2.489-7.321,7.562-8.514,15.219c-0.394,2.816-0.832,6.634-1.314,11.456
			c-0.124,1.543-0.254,2.623-0.388,3.241c-0.659,0.867-1.284,1.919-1.882,3.154c-0.373,0.713-0.406,1.359-0.098,1.938
			c0.215,0.405,0.516,0.607,0.902,0.607c0.713,0,1.295-0.809,1.745-2.43c0.093-0.405,0.23-1.292,0.409-2.662
			c4.004-6.287,7.538-11.466,10.601-15.536c4.618-6.153,9.773-11.167,15.464-15.044c1.389-0.945,3.098-1.736,5.133-2.372
			c-5.053,2.758-9.81,8.41-14.274,16.955c-1.595,2.95-2.91,6.152-3.948,9.604c-0.486,1.409-0.845,2.71-1.077,3.907
			c-0.672,3.124-0.562,5.216,0.33,6.278c0.033,0.046,0.067,0.091,0.1,0.134c0.024,0.031,0.048,0.062,0.072,0.091
			c1.222,1.429,4.53-0.441,6.849-2.052c0.046,0.132,0.096,0.262,0.153,0.391c0.131,0.3,0.291,0.59,0.486,0.857
			c1.446,2.229,4.339,3.049,8.369,0.651c2.021-1.186,3.714-2.966,4.988-4.919c-0.217,3.53,0.594,6.053,2.627,6.233
			c3.605,0.325,6.07-3.003,7.445-5.584c-0.432,3.145,0.407,5.455,2.769,5.489c2.816,0,4.693-2.159,5.958-3.989
			c-0.844,2.3-1.502,3.989-1.923,5.162c-14.499,8.164-16.563,21.487-14.029,25.102c2.582,3.658,8.915,1.032,14.874-16.563
			c0.663-1.943,1.741-5.428,2.963-9.238c0.174-0.223,0.369-0.479,0.583-0.77c0.221-0.301,0.47-0.628,0.732-0.991
			c0.26-0.366,0.542-0.761,0.841-1.182c0.291-0.429,0.6-0.885,0.926-1.368c0.312-0.49,0.657-0.995,0.986-1.544
			c0.167-0.271,0.338-0.549,0.51-0.833c0.167-0.288,0.336-0.581,0.509-0.88c0.176-0.295,0.342-0.605,0.511-0.919
			c0.171-0.312,0.345-0.629,0.508-0.958c0.67-1.305,1.32-2.716,1.873-4.227c0.273-0.759,0.532-1.529,0.748-2.34
			c0.056-0.202,0.11-0.405,0.163-0.609c0.045-0.201,0.089-0.403,0.136-0.603l0.067-0.303L106.556,56l0.017-0.089l0.028-0.154
			c0.039-0.206,0.076-0.414,0.115-0.622c0.135-0.833,0.252-1.678,0.321-2.532C107.105,51.749,107.14,50.89,107.133,50.028z
			 M93.854,35.725c1.951,0-0.497,8.888-12.696,25.302C82.473,55.087,90.136,35.725,93.854,35.725z M66.146,64.355
			c2.675-6.849,6.335-9.196,7.507-8.022c1.184,1.165,0.534,3.004-0.849,4.865l-0.001,0.001c-2.038,2.743-5.785,5.716-7.483,6.474
			C65.459,66.746,65.784,65.363,66.146,64.355z M80.127,98.887c-2.111-2.957,0.798-16.797,13.185-23.46
			C87.119,96.588,81.864,101.328,80.127,98.887z"/>
	</g>
	<g>
		<path style="fill:#F47B20;" d="M7.654,25.58l-1.177-1.962l-3.015-4.915l-0.795-1.26v-0.041h2.364v0.041L8.8,23.763h0.021
			l2.21-3.748c0.351-0.578,0.651-1.07,0.898-1.476l0.682-1.094v-0.041h2.179v0.041l-4.894,8.012l4.997,8.394v0.041h-2.354v-0.041
			c-0.021-0.034-0.076-0.131-0.165-0.289l-2.54-4.512c-0.42-0.681-0.778-1.301-1.074-1.859H8.718
			c-0.33,0.633-0.664,1.225-1.002,1.776l-2.664,4.584c-0.09,0.158-0.145,0.258-0.165,0.299v0.041h-2.22v-0.041
			c0.021-0.034,0.282-0.468,0.785-1.301L7.654,25.58z"/>
		<path style="fill:#F47B20;" d="M32.724,25.58c0,2.382-0.795,4.395-2.385,6.04c-1.625,1.687-3.655,2.53-6.092,2.53
			c-2.327,0-4.299-0.826-5.916-2.478c-1.611-1.638-2.416-3.61-2.416-5.916c0-2.43,0.819-4.464,2.458-6.102
			c1.645-1.645,3.703-2.468,6.174-2.468c2.34,0,4.292,0.805,5.854,2.416c1.549,1.604,2.323,3.59,2.323,5.958V25.58z M30.649,25.642
			c0-1.879-0.602-3.455-1.807-4.729c-1.212-1.287-2.722-1.931-4.533-1.931c-1.79,0-3.29,0.647-4.502,1.941
			c-1.198,1.28-1.796,2.86-1.796,4.739c0,1.831,0.606,3.394,1.817,4.688c1.225,1.315,2.733,1.972,4.523,1.972
			c1.81,0,3.318-0.647,4.522-1.941c1.184-1.273,1.776-2.846,1.776-4.719V25.642z M27.471,16.53l-3.056-1.569l-3.103,1.545
			l-0.705-0.651l3.871-2.591l3.73,2.614L27.471,16.53z"/>
		<path style="fill:#F47B20;" d="M37.215,33.892h-1.962V17.403h1.962V33.892z"/>
	</g>
</g>
</svg>
