<?xml version="1.0" encoding="utf-8"?>
<!-- Generator: Adobe Illustrator 21.0.0, SVG Export Plug-In . SVG Version: 6.00 Build 0)  -->
<svg version="1.1" id="Layer_1" xmlns="http://www.w3.org/2000/svg" xmlns:xlink="http://www.w3.org/1999/xlink" x="0px" y="0px"
	 viewBox="0 0 59 59" style="enable-background:new 0 0 59 59;" xml:space="preserve">
<style type="text/css">
	.st0{display:none;fill:#E6E6E6;}
	.st1{fill:#CC181E;}
	.st2{fill:#FFFFFF;}
</style>
<g>
	<circle class="st0" cx="29.5" cy="29.5" r="32"/>
	<path class="st1" d="M59,29.5C59,45.8,45.8,59,29.5,59S0,45.8,0,29.5c0-4.3,0.9-8.4,2.6-12.1C7.2,7.1,17.5,0,29.5,0
		s22.3,7.1,26.9,17.4C58.1,21.1,59,25.2,59,29.5z"/>
	<path class="st2" d="M40.4,18.7H18.6c-2.5,0-4.5,2-4.5,4.5v12.5c0,2.5,2,4.5,4.5,4.5h21.9c2.5,0,4.5-2,4.5-4.5V23.2
		C45,20.7,42.9,18.7,40.4,18.7z M26.3,33.6v-8.7l8.4,4.4L26.3,33.6z"/>
</g>
</svg>
